<svg id="Layer_1" data-name="Layer 1" xmlns="http://www.w3.org/2000/svg" viewBox="0 0 210 210"><defs><style>.cls-habit-logo-co-1{fill:#b62125;}.cls-habit-logo-co-2{fill:#f99c1f;}.cls-habit-logo-co-3{fill:#060606;}.cls-habit-logo-co-4{fill:#0e0a0a;}</style></defs><title>The Habit Burger Grill Logo</title><path class="cls-habit-logo-co-1" d="M3,73.43a6.94,6.94,0,0,0,.2-2c.41-5.91.46-11.81.35-17.71,0-1.92-.21-3.82-.32-5.75a8.62,8.62,0,0,1,.15-2.15c.44-2,1.62-2.95,3.87-2.93,1.92,0,3.84.15,5.77.07,1.73-.07,3.5-.14,5.25-.19a6.64,6.64,0,0,1,2.17.32,2.75,2.75,0,0,1,2,1.93,3.68,3.68,0,0,1,.1,1.24c0,3.6,0,7.2-.1,10.81-.05,1.85-.11,3.69-.22,5.53a23.09,23.09,0,0,0-.08,3.22,28.07,28.07,0,0,1,.09,5,2.22,2.22,0,0,0,1.88,2.7,19.35,19.35,0,0,0,4.56-.26c1-.14,1.58-.93,1.66-2.12.2-3,.17-6,.15-9,0-5.22,0-10.45,0-15.68a5.42,5.42,0,0,1,.28-1.74c.57-1.65,1.92-2.14,3.48-2.2a22.37,22.37,0,0,1,4,.22A17.69,17.69,0,0,0,42,42.65a18.78,18.78,0,0,1,4.62-.18,3.68,3.68,0,0,1,3.1,2.22,8.79,8.79,0,0,1,.32,3c-.2,2.38-.29,4.77-.38,7.16s-.21,4.86-.08,7.29c.13,2.26.09,4.51.11,6.79.07,5.74,0,11.48.05,17.22,0,3.31-.26,6.62-.16,9.94.11,3.82,0,7.67.06,11.5,0,3.36-.23,6.71,0,10.07.07,1.32.17,2.63.31,3.94a12.47,12.47,0,0,1-.07,3.76,3.47,3.47,0,0,1-3.09,3,24.51,24.51,0,0,1-4.69,0,35.63,35.63,0,0,0-5.75.11,10.28,10.28,0,0,1-3.71,0,3.08,3.08,0,0,1-2.13-2.78,22,22,0,0,1-.19-5.13,104.8,104.8,0,0,0,.35-11.35,87.72,87.72,0,0,1,.27-9.72,16.06,16.06,0,0,0-.44-5,2,2,0,0,0-1.74-1.8,11.71,11.71,0,0,0-4.86.08,1.87,1.87,0,0,0-1.61,1.92c-.14,2-.29,3.91-.35,5.86a49.79,49.79,0,0,0,.47,6.09,55.58,55.58,0,0,1-.09,7.85,50.12,50.12,0,0,0,0,6.6,34.91,34.91,0,0,1,.19,4.69,2.82,2.82,0,0,1-2.18,2.77,4.8,4.8,0,0,1-1.73.13,59,59,0,0,0-9.49,0,13.23,13.23,0,0,1-3.82-.26,3,3,0,0,1-2.05-3.16c0-5.32.09-10.64.11-16,0-1.18-.07-2.37-.11-3.56,0-.09,0-.19-.11-.23v-3.85c0-1.09.19-2.17.09-3.27,0-1.9,0-3.82,0-5.72.12-3.32.11-6.63,0-10,.1-.95-.13-1.88-.09-2.82Z"></path><path class="cls-habit-logo-co-2" d="M151.35,178.05l-12,0c-7.13,0-14.28,0-21.41,0-11.33-.08-22.66-.05-34-.07-3.76,0-7.52,0-11.28,0-11.33-.11-22.66-.06-34-.09-3.72,0-7.44,0-11.16,0-7.93-.1-15.86,0-23.79-.08-.3,0-.6.07-.58-.43s.2-.38.45-.39l5.26-.19c3.87-.11,7.74-.22,11.6-.26,1.85,0,3.7,0,5.56,0,2.26.06,4.51,0,6.79,0,4.19,0,8.38.05,12.58.11,1.67,0,3.35.11,5,.15.62,0,1.24,0,1.86,0a22.84,22.84,0,0,0,4.11-.73l-2.59-.12-10.23-.4c-3.61-.14-7.21-.18-10.81-.24s-7.47-.18-11.21,0c-1.79.07-3.58.06-5.37,0-3.25,0-6.5,0-9.75,0a2.08,2.08,0,0,1-1.41-.3,9.23,9.23,0,0,1,2.09-.35q3.31-.28,6.65-.48,5.85-.3,11.7-.54c3.34-.14,6.68-.16,10-.16,1.44,0,2.88.17,4.32.11,3.82.14,7.64.52,11.49.38a93.78,93.78,0,0,0-10.46-.49.58.58,0,0,0-.61,0h-.42a36.64,36.64,0,0,0-4.32-.08H23.17c-1.19,0-2.38,0-3.6-.12.16-.26.4-.2.6-.21,2.3-.18,4.6-.21,6.9-.25,4.58-.1,9.17-.1,13.76-.11q6.48,0,13,.28,6.87.3,13.75.32c2.95,0,5.9,0,8.84-.05,3.47-.08,6.94-.28,10.41-.38,2.75-.09,5.51-.12,8.26-.17l12.23-.23c3.19-.07,6.37-.13,9.56-.23,3.73-.13,7.47-.25,11.2-.44,3.35-.16,6.71-.23,10.07-.34q7.54-.27,15.11-.19c5.77,0,11.54.22,17.31.55,3.2.18,6.41.19,9.62.27s6.56.15,9.83.42a38.89,38.89,0,0,1,4.45.22c.31.06.64,0,.88.39a42.85,42.85,0,0,0-6.41,0c-2.14.28-4.31.48-6.48.64a134.68,134.68,0,0,1,13.39,2c-.94-.05-1.87-.11-2.8-.18l-7.29-.51c-3.44-.23-6.89-.45-10.33-.66-.45,0-.91,0-1.36,0a28.12,28.12,0,0,0-4.3-.17c1.29,0,2.56.27,3.85.27,2.46.18,4.91.51,7.35.87s4.84.54,7.26.73c2.69.22,5.38.41,8.07.6.35,0,.46.14.43.48s0,.72,0,1.08H174c-.19-.18-.43-.09-.65-.09q-5.55,0-11.11,0C158.63,178,155,178.05,151.35,178.05Zm-23.1-5.11c1.74,0,3.47-.29,5.21-.38,1.16-.06,2.32-.16,3.63-.25-.31,0-.47-.05-.63-.05a72,72,0,0,0-7.19.53c-.35,0-.72-.09-1,.16h-1A1.26,1.26,0,0,0,128.25,172.94Zm27.66-.1-1.25.14a2.18,2.18,0,0,0,1.24,0h.32c.06.05.1,0,.15,0,.45,0,.9,0,1.35,0,3.54-.24,7.08-.6,10.64-.67h2a10.33,10.33,0,0,0-2-.18l-1.3-.05a32.93,32.93,0,0,0-6.2,0c-1.67.22-3.32.51-5,.78Zm-6.8.23,0-.1-2.7-.16a7.87,7.87,0,0,0,1.74.26c.3,0,.64,0,1,0Zm-23,.06a1.32,1.32,0,0,0,.81,0,1.39,1.39,0,0,0-.83,0Z"></path><path class="cls-habit-logo-co-3" d="M69.64,31.84a1.19,1.19,0,0,1,.51,1.22c-.13,1.56,0,3.12-.06,4.69,0,.19,0,.4.21.49s.3-.1.42-.21a4.92,4.92,0,0,1,6.21.47,3.81,3.81,0,0,1,.85,2.58c0,1.82,0,3.65-.08,5.48,0,2.4,0,4.79,0,7.19v2.88c0,.85-.31,1.19-1.17,1.14-1.18-.05-2.37-.06-3.55,0-.7,0-.89-.17-.89-.85V45.59c0-.66.1-1.32.08-2,0-.81-.31-1.13-.9-1.12s-1,.39-1.12,1.15c-.22,2.37,0,4.75,0,7.12a40,40,0,0,0,0,5.25c0,.32.09.64.1,1,0,.54-.24.82-.77.82-1.26,0-2.52,0-3.78,0-.83.06-1.1-.2-1.14-1s0-1.73,0-2.6V41.58c0-1.51.05-3,.07-4.51,0-1.29,0-2.57,0-3.85a1.43,1.43,0,0,1,.57-1.37Z"></path><path class="cls-habit-logo-co-4" d="M207,126.36c-.19,0-.15.22-.2.35a3,3,0,0,1-3.15,1.76,2.92,2.92,0,0,1-.34-5.72,3,3,0,0,1,3.45,1.58c.07.15,0,.37.24.46Zm-2.95-3.18a2.39,2.39,0,1,0,2.37,2.41v0a2.37,2.37,0,0,0-2.37-2.36Z"></path><path class="cls-habit-logo-co-1" d="M106,130.35c-1.65-.6-2.17-2-2.26-3.53-.22-4-.77-7.91-1.22-11.86-.52-4.59-1.32-9.14-1.92-13.71-.28-2.12-.42-4.24-.59-6.37s-.56-4.51-.87-6.78c-.59-4.24-1.25-8.47-1.67-12.73s-.85-8.71-1.42-13c-.43-3.23-.76-6.48-1.19-9.72-.19-1.47-.49-2.94-.77-4.39-.45-2.32.72-3.17,2.83-3.35,1.79-.15,3.58-.24,5.37-.34a38.13,38.13,0,0,0,4.48-.88,13.85,13.85,0,0,1,2.39-.39,2.84,2.84,0,0,1,3,2,15,15,0,0,1,.33,3.13c.06,1.33.08,2.67.27,4,.5,3.51,1.23,7,1.42,10.55,0,.38,0,.82.43,1a1.15,1.15,0,0,0,1.3-.28c.25-.21.51-.39.74-.62a13.12,13.12,0,0,1,7.74-3.59,14.91,14.91,0,0,1,5.45.16,10.92,10.92,0,0,1,5.76,3.57l.52.59c.08.09.1.26.27.22h0c0,.13,0,.21.15.22h0a.66.66,0,0,0,0,.24,33.64,33.64,0,0,1,4.51,10.37,95.67,95.67,0,0,1,2.16,10.33,75.47,75.47,0,0,1,1,10.07c0,1.18.11,2.35.21,3.53.25,2.94.53,5.88.67,8.82a30.21,30.21,0,0,1-.3,6.72A18,18,0,0,1,139,125a13.5,13.5,0,0,1-13.11,2.43,14.62,14.62,0,0,1-2.86-1.41c-.48-.3-.81-.24-1,.17a5.19,5.19,0,0,0-.24,1.09c-.11,1-.44,1.41-1.39,1.55-1.66.25-3.35.26-5,.43a56.6,56.6,0,0,0-6.19,1A5.7,5.7,0,0,1,106,130.35Zm16.07-21.46a2.89,2.89,0,0,0,3.91-1.61,5.52,5.52,0,0,0,.47-2.37c0-2-.16-4.06-.26-6.1a98,98,0,0,0-1.74-14.29A16.44,16.44,0,0,0,123,79.68,4.25,4.25,0,0,0,121.39,78a2.28,2.28,0,0,0-3.47.69,7,7,0,0,0-1.08,5.06c.14,1.35.28,2.7.4,4.05s.21,3,.39,4.44c.25,2,.55,3.94.86,5.9.41,2.67.79,5.36,1.46,8A4.16,4.16,0,0,0,122.1,108.89Z"></path><path class="cls-habit-logo-co-1" d="M79.78,128.63c-.67,0-1.34,0-1.74-.7,0-.45-.08-.9-.1-1.35s0-1-.52-1.18-.73.21-1,.46a10.46,10.46,0,0,1-5.31,2.94,18.28,18.28,0,0,1-5,.18,13.71,13.71,0,0,1-6.46-2.18c-.16-.1-.3-.3-.55-.22h0c0-.21-.12-.21-.25-.26a15.2,15.2,0,0,1-3.6-4.37,28.22,28.22,0,0,1-2.83-9,49.54,49.54,0,0,1-.54-10A36.52,36.52,0,0,1,54.1,90.6a14.75,14.75,0,0,1,11-9.42,12.81,12.81,0,0,1,9.44,1.39,1.87,1.87,0,0,0,2.9-2,10.26,10.26,0,0,0-.69-2.84A3.75,3.75,0,0,0,73.9,75.6a20.13,20.13,0,0,0-7.34-.2,12.38,12.38,0,0,0-5,1.63,3.14,3.14,0,0,1-3.3.35,2.8,2.8,0,0,0-.34-.21,3,3,0,0,1-1.74-2.77,22.55,22.55,0,0,1,0-2.6c.13-1.74,0-3.51,0-5.26,0-2.08.56-3,2.5-3.76a27.24,27.24,0,0,1,10.11-2.09c2.34,0,4.68-.23,7-.07a32.55,32.55,0,0,1,12.36,2.82,10.62,10.62,0,0,1,4,3.25,10.42,10.42,0,0,1,1.14,2.38,25,25,0,0,1,1,7c.08,1.83,0,3.66,0,5.49-.08,2.57,0,5.13,0,7.7.1,3.25,0,6.49-.06,9.72,0,5.44-.12,10.87.07,16.32a46.17,46.17,0,0,1-.09,5.26c-.15,1.75-.09,3.51-.13,5.26a2.49,2.49,0,0,1-2.31,2.6,21.32,21.32,0,0,1-3.39,0c-1.66,0-3.32-.12-5-.09C82.21,128.33,81,128.52,79.78,128.63ZM75.86,97.92h0a3.22,3.22,0,0,0-5.32-1.08,6.62,6.62,0,0,0-1.8,4.86q-.06,3,0,6a10.79,10.79,0,0,0,.68,3.77,3.42,3.42,0,0,0,2,2.18,3.3,3.3,0,0,0,4-1.18,5.44,5.44,0,0,0,1.11-3.2c0-2.81.06-5.63.08-8.44A5.91,5.91,0,0,0,76,98Z"></path><path class="cls-habit-logo-co-1" d="M194,110.57c1.73-.17,2.28.15,2.94,1.78a8.44,8.44,0,0,1,.13,1.81c0,1.82-.13,3.65-.1,5.48,0,2,.12,4,.08,5.94a2.44,2.44,0,0,1-2.61,2.51c-.26,0-.53,0-.79,0a40.07,40.07,0,0,0-5.14,0c-.81.05-1.61.13-2.43.17a20.35,20.35,0,0,1-5.62-.18,14.18,14.18,0,0,1-2.74-1,8.65,8.65,0,0,1-3.32-5,18.56,18.56,0,0,1-.61-4.51c-.06-3.47.23-6.94.24-10.41,0-4.44,0-8.87,0-13.31,0-3.36.09-6.71.14-10.07,0-.37,0-.75.07-1.13,0-.12,0-.26,0-.39,0-1.07-.3-1.41-1.36-1.44h-1.12c-1.4-.2-1.73-.52-1.86-1.94s.06-2.9.05-4.35c0-2.7,0-5.4,0-8.1V66c.08-1.14.54-1.58,1.68-1.58.48,0,.95.06,1.42,0,.74,0,1.14-.41,1.08-1.09-.23-2.55.12-5.1-.06-7.64-.09-1.24-.23-2.48-.31-3.72a6.23,6.23,0,0,1,.61-3.29A2.78,2.78,0,0,1,177.11,47c2,.08,4.11.2,6.16.21,1.77,0,3.54-.25,5.31-.21a3.06,3.06,0,0,1,3.13,2.07,15.14,15.14,0,0,1,.22,2.43c0,1-.1,2.08,0,3.15a51.08,51.08,0,0,1,0,5.25,18.73,18.73,0,0,0-.07,3.89.7.7,0,0,0,.59.66c.4.06.82.06,1.23.09s.9-.05,1.35-.06a1.91,1.91,0,0,1,2.23,1.87c0,1.78-.16,3.57-.07,5.36.1,2.24.21,4.48.21,6.72,0,1.59-.17,2.73-2.55,2.43a13,13,0,0,0-1.52-.06,1.14,1.14,0,0,0-1,.57,2.48,2.48,0,0,0-.32,1.3c0,1,0,2.09.06,3.13.08,3.47,0,6.94,0,10.41-.07,2.62-.06,5.24.05,7.86.06,1.53,0,3.06,0,4.59A1.82,1.82,0,0,0,194,110.57Z"></path><path class="cls-habit-logo-co-1" d="M150.12,128.07c-1.92-.62-2.12-2.24-2.12-3.88,0-1.81.14-3.61.18-5.42s.07-3.36.07-5c0-3.66.07-7.32.1-11,0-2.46-.07-4.91-.1-7.36,0-2.94.26-5.88.32-8.82.05-2,0-3.92-.06-5.9,0-2.45,0-4.9.05-7.35s0-4.83-.1-7.24a27.63,27.63,0,0,1-.07-3.28,2.24,2.24,0,0,1,1.12-1.8,4.34,4.34,0,0,1,2.58-.66c1.3.07,2.6.18,3.9.22,1.92,0,3.84-.12,5.76-.16a27.67,27.67,0,0,1,2.88,0,2.43,2.43,0,0,1,2.39,2,7.31,7.31,0,0,1,.19,1.74c-.1,1.86-.22,3.72-.31,5.58-.12,2.13,0,4.26,0,6.39,0,3.13.23,6.25.13,9.37s-.2,6.07-.21,9.11c0,2.14.11,4.29.19,6.44s.07,4.41,0,6.6-.24,4.36-.27,6.55c0,1.44.13,2.89.21,4.34,0,.79.1,1.58.14,2.37a23.31,23.31,0,0,1,.05,4.34,3,3,0,0,1-3.23,2.92,35,35,0,0,0-5-.18c-1.25.11-2.52.09-3.78.17A19.61,19.61,0,0,1,150.12,128.07Z"></path><path class="cls-habit-logo-co-2" d="M29,138.17A100.88,100.88,0,0,1,18,137c-3.91-.62-7.85-1-11.78-1.44-.86-.1-1.73-.25-2.58-.28-.56,0-.45-.35-.47-.68s.25-.38.52-.38l8.33,0h.17l21.58.05,22.66,0c3.74,0,7.48,0,11.22,0,11.33.1,22.66,0,34,.08,3.74,0,7.48,0,11.22,0,11.33.1,22.66,0,34,.07,3.76,0,7.51,0,11.27,0,11.31.1,22.62.05,33.93.08,1.39,0,2.76,0,4.14,0,.38,0,.54.1.51.5a8.69,8.69,0,0,0,0,1.25c0,.41-.12.5-.51.49-2.58-.13-5.16-.24-7.74-.35-4.17-.17-8.33-.29-12.5-.52-3.41-.18-6.83,0-10.24-.07-4.21,0-8.42-.08-12.62-.15-1.44,0-2.87-.14-4.3-.14a20,20,0,0,0-5.21.73,21.53,21.53,0,0,0,2.89.15c3.33.14,6.67.31,10,.43,2.68.09,5.36.12,8,.17l9.62.17c2.51,0,5-.25,7.53-.18,2.15,0,4.3.09,6.45,0,1.87,0,3.74,0,5.61,0a1.63,1.63,0,0,1,1.07.29,7.24,7.24,0,0,1-1.79.32c-2.08.23-4.16.37-6.25.47-4.07.2-8.13.39-12.21.57-1.82.07-3.65.09-5.48.13h-5.7c-4.94,0-9.86-.63-14.8-.42,4.92.45,9.86.5,14.8.52H169c2,0,4.08,0,6.11,0,1.63,0,3.25.06,4.86.1l.21,0v.15c-.42,0-.84.11-1.27.13-4.16.19-8.33.23-12.5.26-2.69,0-5.39.06-8.09,0-4.8,0-9.58-.18-14.37-.39-2.4-.11-4.79-.1-7.19-.18-3.59-.11-7.17-.07-10.76,0-3.9,0-7.8.27-11.7.39-2.63.09-5.25.12-7.87.17L94.3,140c-3.3.07-6.6.13-9.9.23-4,.13-8.07.3-12.1.44L63,141c-6.24.25-12.49.25-18.74.19q-7.39-.08-14.76-.52c-2-.12-3.93-.13-5.91-.18-4.29-.12-8.6-.12-12.89-.45-1.58-.12-3.16,0-4.73-.19a2.31,2.31,0,0,1-1.47-.48,115.36,115.36,0,0,0,12.05.3l-4.79-.28c-2.78-.15-5.54-.38-8.29-.67-.5-.06-.34-.4-.37-.67s.11-.39.39-.38l7.58.22q3.2.09,6.39.15l10.81.23h.63a3.64,3.64,0,0,0,1.47.06C29.92,138.36,29.45,138.07,29,138.17Zm24.83,1.34c.25.19.51.08.77,0h-.78a8.84,8.84,0,0,0-3.24-.17c1.07,0,2.15.24,3.23.17Zm18.7-.11c-1.74,0-3.45.28-5.18.38L64,140a1.42,1.42,0,0,0,.42.08c2.32,0,4.62-.3,6.92-.52.38,0,.8.08,1.14-.18a6.18,6.18,0,0,0,1.92-.19,7.36,7.36,0,0,0-1.93.2Zm-27.6,0c-4.62.21-9.14.73-13.69.84a36,36,0,0,0,13.67-.84Z"></path><path class="cls-habit-logo-co-3" d="M111.45,151.59a17.21,17.21,0,0,1-.07,3.43,6.16,6.16,0,0,1-2.24,3.73c-.28.21-.43.44-.24.76,1.12,1.87,1.71,4,2.7,5.93a3.5,3.5,0,0,1,.38.94,1,1,0,0,1-.7,1.22l-.07,0a3,3,0,0,1-1.12.06,22.26,22.26,0,0,0-3.16,0c-.77,0-1-.12-1.16-.86a16.85,16.85,0,0,0-1.1-3,11.37,11.37,0,0,1-.84-2.26,2.42,2.42,0,0,0-.23-.58.6.6,0,0,0-.69-.35c-.31.07-.37.3-.39.55a27.65,27.65,0,0,0,0,4.17c0,.41.06.83.05,1.24,0,.76-.35,1.1-1.11,1.12a6,6,0,0,1-.85,0,15.62,15.62,0,0,0-2.82.11c-.56.06-.86-.24-1-.77a5.64,5.64,0,0,1,0-1.69c.13-4.76,0-9.51.07-14.27,0-1.89.06-3.77.1-5.66,0-.83.29-1.17,1.1-1.2,1.81,0,3.61,0,5.42-.12a13.16,13.16,0,0,1,3.6.09,5.7,5.7,0,0,1,4.26,5C111.38,150,111.41,150.78,111.45,151.59Zm-9,1.62a4.76,4.76,0,0,0,.14,1.3.82.82,0,0,0,.55.59c.83.3,2.43-.12,2.45-1.49a22.08,22.08,0,0,0-.1-2.93c-.19-1.53-.95-1.76-2.34-1.63a.7.7,0,0,0-.71.68,1,1,0,0,0,0,.17,24.38,24.38,0,0,1,0,3.31Z"></path><path class="cls-habit-logo-co-3" d="M46.63,164.54c.18-3.63,0-7.38.07-11.13.08-2.72-.06-5.44.14-8.15.06-.7.31-.9,1-1a12.49,12.49,0,0,1,1.73,0c1.92,0,3.85-.09,5.77-.2a5.68,5.68,0,0,1,5.81,5c.07,1.54.22,3.09.21,4.63a6,6,0,0,1-2.4,5.11c-.28.21-.41.44-.2.77a31.73,31.73,0,0,1,1.92,4.19l1,2.08c.52,1.13.07,1.94-1.16,1.88s-2.57,0-3.84,0a.85.85,0,0,1-1-.69,25.92,25.92,0,0,0-1.59-4.2c-.19-.47-.3-1-.47-1.44s-.27-.78-.79-.73-.47.55-.49.89a29.54,29.54,0,0,0,.12,4.41c0,.15,0,.3,0,.45.06.93-.36,1.41-1.29,1.36a20.2,20.2,0,0,0-3.39.05c-.78.09-1.15-.28-1.18-1.07S46.63,165.36,46.63,164.54Zm5.68-11.77a5.58,5.58,0,0,0,.11,1.68,1,1,0,0,0,.62.68A1.85,1.85,0,0,0,55.37,154a1.91,1.91,0,0,0,.1-.58c0-.8-.07-1.61-.1-2.43-.06-1.49-.69-2.06-2.19-1.93-.67.06-.93.31-.87,1A15,15,0,0,1,52.31,152.77Z"></path><path class="cls-habit-logo-co-3" d="M138.56,164.48V153.33c0-2.53.06-5.06.11-7.59,0-1.21.3-1.55,1.51-1.52,2.45.08,4.9-.15,7.35-.16a5.61,5.61,0,0,1,5.52,5.21c.08,1.38.19,2.74.2,4.12a6.25,6.25,0,0,1-2.38,5.35c-.26.2-.45.42-.24.76a52.13,52.13,0,0,1,2.34,5.17,13.29,13.29,0,0,1,.67,1.49,1,1,0,0,1-.86,1.49,2.75,2.75,0,0,1-.95,0,24,24,0,0,0-3.17.05c-.79,0-1-.15-1.17-.92a14.34,14.34,0,0,0-.86-2.43,14.92,14.92,0,0,1-1.09-2.83,2.57,2.57,0,0,0-.21-.52.6.6,0,0,0-.65-.34c-.33,0-.41.27-.44.51,0,.41,0,.83-.05,1.24-.05,1.32.1,2.64.15,4,0,1.06-.35,1.47-1.39,1.39a14,14,0,0,0-3,0c-1.22.18-1.39-.43-1.42-1.54,0-.6,0-1.21,0-1.81Zm8.71-12.31q0-.64,0-1.29c-.17-1.61-.83-2-2.4-1.82-.35,0-.66.21-.66.65,0,1.42,0,2.85,0,4.28a1.14,1.14,0,0,0,.53,1,1.94,1.94,0,0,0,2.53-1.08,7.58,7.58,0,0,0,0-1.78Z"></path><path class="cls-habit-logo-co-3" d="M24,154.9c1.84,1.31,2.32,3.18,2.34,5.27a11.16,11.16,0,0,1-.43,3.85,5.2,5.2,0,0,1-5.09,3.72c-2,.07-4,0-6,0-.47,0-.94.06-1.41,0-.91-.06-1.15-.33-1.14-1.25,0-1.51,0-3,0-4.51-.07-2.36,0-4.72.06-7.07a11.22,11.22,0,0,0,0-1.3c-.22-2.55.07-5.09,0-7.64,0-1.24.35-1.65,1.6-1.62,2.31.08,4.61-.1,6.91,0,1.8.09,3.47.57,4.42,2.33a7.34,7.34,0,0,1,.74,4.22A5.25,5.25,0,0,1,24,154.9ZM18,160.15c0,.55,0,1.1,0,1.64.06.9.55,1.22,1.42,1a1.31,1.31,0,0,0,.95-1.26,20.64,20.64,0,0,0,.06-2.08,1.55,1.55,0,0,0-1.21-1.56.88.88,0,0,0-1.15.51.72.72,0,0,0-.06.29C17.91,159.13,18,159.65,18,160.15ZM18,151h0v1c0,.74.31,1,1,.8a1.55,1.55,0,0,0,1.22-1.55c.06-1.12-.31-1.92-1-2.19s-1.25,0-1.27.85c0,.36,0,.72,0,1.07Z"></path><path class="cls-habit-logo-co-3" d="M37.51,154.23c-.14-3.14.05-6.09-.15-9a.79.79,0,0,1,.61-.93h.13a2.6,2.6,0,0,1,.39,0c1.15,0,2.3,0,3.45,0,.89,0,1.29.35,1.3,1.14,0,2.6.13,5.21.08,7.8-.06,3.08-.07,6.14-.07,9.22a4.76,4.76,0,0,1-1.44,3.5A6.67,6.67,0,0,1,37.56,168a12.26,12.26,0,0,1-4.86-.35A5,5,0,0,1,29,162.72c-.06-2.51-.11-5-.11-7.53,0-1.84.12-3.69.14-5.55,0-1.19-.08-2.37-.13-3.56a3.42,3.42,0,0,1,.06-1,.94.94,0,0,1,1-.83h3.68c.84,0,1.17.3,1.14,1.11-.12,3.19-.06,6.38-.1,9.56,0,2.24,0,4.49,0,6.73,0,.7.44,1.05,1.21,1.07s1.42-.29,1.51-1a21.29,21.29,0,0,0,0-2.88C37.43,157.27,37.41,155.65,37.51,154.23Z"></path><path class="cls-habit-logo-co-3" d="M74.62,152.75h2.43c.8,0,1.08.22,1.24,1a3.61,3.61,0,0,1,.07.73c-.15,3,.08,6,0,9,0,.91,0,1.81,0,2.72a1.28,1.28,0,0,1-1,1.42,4.73,4.73,0,0,1-1.43.29,22.19,22.19,0,0,1-6.25-.32,7.22,7.22,0,0,1-5.25-5.05,16,16,0,0,1-.84-6.68,19.43,19.43,0,0,1,.5-4.3,11.15,11.15,0,0,1,2.4-4.53,8.45,8.45,0,0,1,5-2.63,13.8,13.8,0,0,1,5.28.09c.8.16,1,.39,1.09,1.19a19.92,19.92,0,0,1,0,3c-.06,1.05-.7,1.46-1.71,1.15a7.7,7.7,0,0,0-3.24-.21,4.31,4.31,0,0,0-3.27,3.85,36.61,36.61,0,0,0-.14,4.91,9.62,9.62,0,0,0,.69,2.95,2,2,0,0,0,1.57,1.32c.64.09,1.13-.23,1.13-.86,0-1-.06-2.11-.12-3.17,0-.44-.29-.64-.77-.62-.83,0-.86,0-.85-.86a30.82,30.82,0,0,1,0-3.33c.09-.9.3-1.07,1.18-1.05Z"></path><path class="cls-habit-logo-co-3" d="M131.56,152.75h2.32c1,0,1.34.27,1.39,1.23,0,1.31,0,2.63,0,4,.06,1.93,0,3.85,0,5.77,0,.81.06,1.62.08,2.43a1.34,1.34,0,0,1-1.08,1.51,4.7,4.7,0,0,1-1.39.27,21.13,21.13,0,0,1-6.3-.33c-2.93-.69-4.5-2.79-5.37-5.49a18.24,18.24,0,0,1-.66-6.94,15.8,15.8,0,0,1,1.05-5.28,8.58,8.58,0,0,1,6.89-5.49,14.49,14.49,0,0,1,5.17.11c.84.16,1.1.45,1.11,1.28s0,2,0,2.95a1.12,1.12,0,0,1-1.61,1.12,8.23,8.23,0,0,0-3.24-.25,4.27,4.27,0,0,0-3.3,3.57,26.4,26.4,0,0,0-.13,5.69,7.75,7.75,0,0,0,.78,2.75,2,2,0,0,0,1.46,1,.84.84,0,0,0,1.06-.8,19.53,19.53,0,0,0-.13-3.33c-.06-.42-.31-.53-.69-.53-.88,0-.88,0-.88-.89v-3.23c0-.88.3-1.13,1.17-1.12h2.28Z"></path><path class="cls-habit-logo-co-3" d="M81.54,164.48c.11-2.36-.06-4.54-.09-6.73s0-4.56,0-6.84c0-1.74-.06-3.47-.1-5.21,0-.86.38-1.32,1.23-1.32l9.38,0c1,0,1.34.35,1.37,1.26s0,1.7,0,2.54c0,1-.48,1.34-1.57,1.31-.85,0-1.7-.07-2.54-.08-.44,0-.87,0-1.3,0a.73.73,0,0,0-.78.66.24.24,0,0,0,0,.12c0,.64,0,1.28,0,1.92s.3.86,1,.86c1,0,2,0,3,0h.57c1.29,0,1.6.33,1.6,1.61v2.21a1.27,1.27,0,0,1-1.42,1.45c-.95,0-1.92-.05-2.88-.09h-.11c-1.32.11-1.73.23-1.54,1.63.07.55,0,1.13,0,1.69.08.78.32.95,1.11.95,1.31,0,2.63,0,4,0s1.55.4,1.54,1.64c0,.77,0,1.55,0,2.32,0,1-.47,1.47-1.47,1.46-1.93,0-3.85.07-5.77-.07-1.25-.1-2.49.09-3.73.08-1,0-1.46-.43-1.45-1.48C81.55,165.67,81.54,165,81.54,164.48Z"></path><path class="cls-habit-logo-co-2" d="M150.85,54.65a2,2,0,0,1-1.74-1.48,7.82,7.82,0,0,1-.38-2.5c0-1.76-.14-3.51-.15-5.26s.6-3.49,3.29-3.5c2,0,3.91.3,5.88.24s4.08-.06,6.11-.21c1.84-.13,2.15.08,2.81,1.8a9,9,0,0,1,.11,2.37c0,.77-.09,1.54-.06,2.31,0,1.15.15,2.3.22,3.44a2.19,2.19,0,0,1-1.79,2.44,4.27,4.27,0,0,1-1,.09c-1.94,0-3.88-.17-5.83-.09Z"></path><path class="cls-habit-logo-co-3" d="M91.45,54.61v1.47a1.1,1.1,0,0,1-.73,1.15,7.5,7.5,0,0,1-2.6.62,11.11,11.11,0,0,1-4.59-.34,6.43,6.43,0,0,1-4.25-5.33,28.29,28.29,0,0,1-.17-6.88,17.17,17.17,0,0,1,.38-3.12c.86-3.53,3.32-5.28,6.94-4.93a5.92,5.92,0,0,1,5.33,5.14,28.68,28.68,0,0,1,.11,5.48,2.08,2.08,0,0,1-.33,1.45,1.28,1.28,0,0,1-1.17.55c-1.74-.13-3.5.11-5.25,0-.67-.05-1,.46-.84,1.2a2.38,2.38,0,0,0,2.27,1.87,5,5,0,0,0,3-.52,1.92,1.92,0,0,1,.84-.29,1.05,1.05,0,0,1,1.17.9v1.61Zm-7.19-10.3c0,.12,0,.41,0,.7s.08.48.35.54a3.74,3.74,0,0,0,1.79,0,.65.65,0,0,0,.45-.65,8.07,8.07,0,0,0-.09-2.08,1.24,1.24,0,0,0-1.1-1,1.11,1.11,0,0,0-1.24.91A4.33,4.33,0,0,0,84.26,44.31Z"></path><path class="cls-habit-logo-co-4" d="M32.55,128.42a10.07,10.07,0,0,0,3.71.05,35.73,35.73,0,0,1,5.76-.11,24.39,24.39,0,0,0,4.68,0,3.46,3.46,0,0,0,3.09-3,12.16,12.16,0,0,0,.07-3.76c-.14-1.31-.24-2.62-.31-3.94-.17-3.36.09-6.71.06-10.07,0-3.82,0-7.66-.07-11.49-.1-3.33.17-6.64.16-10,0-5.74,0-11.48,0-17.22,0-2.26,0-4.53-.11-6.79-.14-2.43,0-4.86.07-7.29s.18-4.78.38-7.16a8.79,8.79,0,0,0-.32-3c1.64.63,2.08,2,2.16,3.57A43.15,43.15,0,0,1,51.67,53c-.23,4.31-.38,8.63-.22,13,.06,1.74,0,3.47.08,5.21.12,5.21.11,10.38.07,15.57,0,3.82-.24,7.65-.21,11.48,0,4,.18,8,.1,12-.07,3.17-.17,6.34-.07,9.51,0,1.51.23,3,.38,4.51a9.33,9.33,0,0,1-.22,3.37A3.47,3.47,0,0,1,48,130.35a54.18,54.18,0,0,1-5.55-.2,35,35,0,0,0-4.91.26,9.92,9.92,0,0,1-2.93-.07A2.58,2.58,0,0,1,32.55,128.42Z"></path><path class="cls-habit-logo-co-4" d="M106,130.35a5.54,5.54,0,0,0,3.15-.06,56.21,56.21,0,0,1,6.19-1c1.68-.17,3.36-.18,5-.43.95-.14,1.29-.57,1.39-1.55a5.61,5.61,0,0,1,.23-1.08c.14-.42.48-.48,1-.18a13.83,13.83,0,0,0,2.86,1.41,13.45,13.45,0,0,0,13.1-2.43,18,18,0,0,0,5.86-10.74,29.56,29.56,0,0,0,.29-6.71c-.13-2.95-.41-5.89-.66-8.83-.1-1.17-.18-2.35-.21-3.53a75.65,75.65,0,0,0-1-10.07,93.12,93.12,0,0,0-2.15-10.32,32.89,32.89,0,0,0-4.51-10.38.5.5,0,0,1-.05-.21,5.51,5.51,0,0,1,1.57,1.62,27,27,0,0,1,4.16,8.5,82.57,82.57,0,0,1,3,13.64c.32,2.22.59,4.43.69,6.68.2,4.14.6,8.28.89,12.42a48.31,48.31,0,0,1,.11,6.91,18.83,18.83,0,0,1-5.67,12.5,12.38,12.38,0,0,1-7.26,3.39,13.56,13.56,0,0,1-7.9-1.26c-.43-.21-.83-.48-1.25-.73-.6-.34-.83-.25-1,.41a5.23,5.23,0,0,0-.15.77,1.67,1.67,0,0,1-1.77,1.7c-1.65.13-3.3.21-4.94.37a41.81,41.81,0,0,0-5.09.82,10.74,10.74,0,0,1-3.34.41A3,3,0,0,1,106,130.35Z"></path><path class="cls-habit-logo-co-3" d="M183.41,167.74c-1.09,0-2.51,0-3.92.06-1,.06-1.54-.41-1.51-1.44.07-2.47-.1-4.94,0-7.41,0-1.36-.07-2.72,0-4.07.08-2.58,0-5.17.13-7.75,0-.65-.08-1.31-.09-2s.24-.94.92-.89a21.42,21.42,0,0,0,3.67,0c1-.08,1.3.25,1.21,1.25-.25,2.76.06,5.51,0,8.26,0,2.34,0,4.67,0,7v.35c.05,1.25.43,1.59,1.68,1.53.47,0,.94-.05,1.39-.12,1-.15,1.58.24,1.58,1.29,0,.9-.07,1.79,0,2.7s-.44,1.18-1.25,1.19Z"></path><path class="cls-habit-logo-co-3" d="M171.22,167.74c-1.09,0-2.5,0-3.91.06-1,0-1.5-.41-1.55-1.43,0-.53,0-1.05,0-1.59,0-3.37-.05-6.75-.05-10.13,0-2.43.07-4.86.11-7.29a12.16,12.16,0,0,0-.09-1.91c-.11-.9.21-1.26,1.1-1.18a20.45,20.45,0,0,0,3.5,0c1-.08,1.33.25,1.25,1.24-.18,2.28,0,4.56,0,6.83-.07,2.85,0,5.7-.07,8.55a2.62,2.62,0,0,0,0,.56c.12.91.45,1.22,1.39,1.2a15.56,15.56,0,0,0,1.8-.13c.94-.11,1.44.29,1.46,1.25s0,1.84,0,2.77a1.07,1.07,0,0,1-.94,1.19,1,1,0,0,1-.25,0C173.85,167.75,172.69,167.74,171.22,167.74Z"></path><path class="cls-habit-logo-co-4" d="M150.12,128.07a21,21,0,0,0,4.95,0c1.26-.07,2.53-.05,3.79-.17a40.12,40.12,0,0,1,5,.18c2.1.08,3-1.34,3.23-2.91a23.3,23.3,0,0,0-.06-4.34c0-.8-.1-1.58-.14-2.37-.08-1.45-.23-2.9-.21-4.35,0-2.19.17-4.37.27-6.55s.12-4.4,0-6.59-.21-4.3-.2-6.45c0-3,.12-6.07.22-9.1s-.1-6.25-.14-9.37c0-2.13-.11-4.26,0-6.39.1-1.86.21-3.72.31-5.58a6.78,6.78,0,0,0-.19-1.74,2.65,2.65,0,0,1,2,2.82c.07,2.32-.2,4.63-.29,6.94-.08,2.08,0,4.17,0,6.23.08,3.82.24,7.61.08,11.42-.17,4.24-.23,8.48,0,12.73a74.35,74.35,0,0,1-.17,9.32,109.88,109.88,0,0,0,.31,12.31,10.74,10.74,0,0,1-.19,3.66,2.76,2.76,0,0,1-2.95,2.2,56.37,56.37,0,0,0-7-.11c-1.78.14-3.57.25-5.36.25a6.89,6.89,0,0,1-1.29-.15A2.54,2.54,0,0,1,150.12,128.07Z"></path><path class="cls-habit-logo-co-3" d="M56.88,48.44c0-1.39,0-2.78,0-4.19,0-.52-.11-.79-.69-.74s-.63-.25-.63-.66c0-1.25,0-2.49,0-3.74,0-.41.24-.52.59-.48s.67-.12.63-.64c-.06-1,0-2.08-.11-3.1s.38-1.49,1.42-1.48H61c.94,0,1.21.26,1.22,1.2s.05,2.14,0,3.21c-.06.82,0,.83.79.82.65,0,.88.16.83.75-.09,1.12,0,2.22,0,3.33,0,.74-.13.85-.85.81s-.73.06-.73.69v7.42c0,.51.11.84.73.78s.72.31.73.75c0,1.26,0,2.53,0,3.79a.66.66,0,0,1-.6.73H63c-1.13-.06-2.26.07-3.39.09a2.54,2.54,0,0,1-2.77-2.5c-.19-1.81.09-3.62,0-5.43,0-.47,0-.94,0-1.41Z"></path><path class="cls-habit-logo-co-4" d="M79.78,128.63c1.21-.11,2.43-.29,3.65-.31,1.66,0,3.32.08,5,.09a20.08,20.08,0,0,0,3.38,0,2.49,2.49,0,0,0,2.32-2.6c0-1.74,0-3.51.12-5.26a42,42,0,0,0,.09-5.26c-.19-5.44-.09-10.87-.06-16.32,0-3.24.16-6.49.06-9.72-.08-2.56-.13-5.13,0-7.7.06-1.83.12-3.66,0-5.48a25.4,25.4,0,0,0-1-7,10.42,10.42,0,0,0-1.14-2.38,8.15,8.15,0,0,1,3.15,4.67,28.5,28.5,0,0,1,.83,6.76c.08,2.81-.11,5.62-.08,8.43,0,2.32.13,4.64.1,7-.07,6.5-.13,13-.1,19.48,0,2,.12,4,.1,6s-.15,4.26-.23,6.39c0,.73,0,1.47,0,2.21a2.48,2.48,0,0,1-2.6,2.71c-2.19.08-4.38,0-6.56-.11-1.63-.05-3.24.14-4.86.23a5.79,5.79,0,0,1-1,0,1.07,1.07,0,0,1-1.09-1.13Z"></path><path class="cls-habit-logo-co-3" d="M159.65,144.36h1.86c.73,0,1.08.32,1,1-.33,2.88-.13,5.77-.18,8.65,0,2-.1,4-.05,6,.05,1.71,0,3.42-.05,5.14,0,.47,0,.94.06,1.41.06.82-.25,1.19-1.1,1.21l-3.67,0c-.82,0-1.12-.24-1.12-1.07,0-2.9,0-5.81.14-8.71.06-1.82,0-3.65,0-5.48.08-2.28.07-4.55,0-6.83,0-1.15.25-1.41,1.43-1.39.55,0,1.09,0,1.64,0Z"></path><path class="cls-habit-logo-co-4" d="M5.16,128.3a12.89,12.89,0,0,0,3.82.26,59,59,0,0,1,9.49,0,4.86,4.86,0,0,0,1.74-.12,2.84,2.84,0,0,0,2.17-2.78,35,35,0,0,0-.19-4.69,50,50,0,0,1,0-6.59,55.72,55.72,0,0,0,.08-7.86,49.47,49.47,0,0,1-.47-6.08c.05-2,.2-3.91.35-5.87a1.9,1.9,0,0,1,1.62-1.92,11.88,11.88,0,0,1,4.86-.08,1.92,1.92,0,0,1,1.73,1.8,16.61,16.61,0,0,0-3.86,0c-1.74.15-2.47.78-2.52,2.48-.08,2.88-.49,5.75-.14,8.64a36.37,36.37,0,0,1,.44,5.8c-.1,2.68-.22,5.35-.32,8-.09,2.19.19,4.36.3,6.55a7,7,0,0,1-.15,2.41,2.76,2.76,0,0,1-2.65,2.14,25.85,25.85,0,0,1-3.73-.14c-2-.15-4,.07-5.93.11a16.21,16.21,0,0,1-4.56-.19A2.69,2.69,0,0,1,5.16,128.3Z"></path><path class="cls-habit-logo-co-4" d="M194,110.57a1.82,1.82,0,0,1-1.91-1.95c0-1.53,0-3.06,0-4.59-.11-2.62-.12-5.24-.05-7.86.08-3.47.12-6.94,0-10.41,0-1-.06-2.08-.06-3.13a2.43,2.43,0,0,1,.32-1.29,1.1,1.1,0,0,1,1-.57,12.94,12.94,0,0,1,1.52,0c2.38.31,2.55-.83,2.55-2.43,0-2.24-.11-4.48-.21-6.72-.09-1.79.08-3.58.07-5.36a1.85,1.85,0,0,1,1.87,2.08c0,1.68-.16,3.36-.1,5q.12,3.61.22,7.23a2.67,2.67,0,0,1-.23,1.21,1.26,1.26,0,0,1-1.19.8,20.55,20.55,0,0,1-2.08-.07,1.48,1.48,0,0,0-1.82,1.66c0,1.86.07,3.73.09,5.6.05,4.64-.16,9.28-.09,13.92C193.89,106.08,193.94,108.32,194,110.57Z"></path><path class="cls-habit-logo-co-4" d="M177.71,127a14.09,14.09,0,0,0,2.73,1,20.44,20.44,0,0,0,5.63.19c.81,0,1.61-.12,2.43-.18a44.07,44.07,0,0,1,5.14,0c.26,0,.53,0,.79,0a2.43,2.43,0,0,0,2.61-2.5c0-2,0-4-.08-5.94s.06-3.66.1-5.49a9,9,0,0,0-.13-1.8c1.29.35,2,1.3,2,3s-.06,3.16-.09,4.74c0,2.15.06,4.3.11,6.45a4.3,4.3,0,0,1-.32,2,2.2,2.2,0,0,1-2.22,1.43,55.05,55.05,0,0,0-6.55,0,47.16,47.16,0,0,1-5.31.23,8.6,8.6,0,0,1-6.32-2.51C178,127.49,177.89,127.25,177.71,127Z"></path><path class="cls-habit-logo-co-4" d="M24.08,73.51a2.21,2.21,0,0,1-1.88-2.7,28.07,28.07,0,0,0-.09-5,23.09,23.09,0,0,1,.08-3.22c.11-1.84.16-3.69.22-5.53.11-3.61.1-7.21.1-10.81a3.86,3.86,0,0,0-.1-1.22,2.65,2.65,0,0,1,2,2.63c.06,2.55,0,5.09-.06,7.64-.05,1.56-.06,3.12-.08,4.69,0,2-.15,3.92-.29,5.88A17.15,17.15,0,0,0,24.08,69,38.2,38.2,0,0,1,24.08,73.51Z"></path><path class="cls-habit-logo-co-4" d="M150.85,54.65l7.46-.34c1.94-.09,3.88.13,5.82.09a4.87,4.87,0,0,0,1-.1,2.19,2.19,0,0,0,1.79-2.43c-.06-1.15-.18-2.29-.22-3.44,0-.77,0-1.55.07-2.32a9.81,9.81,0,0,0-.11-2.36c1,.12,1.64.81,1.91,2.17a11.51,11.51,0,0,1,0,3,32.54,32.54,0,0,0,.17,4,3.42,3.42,0,0,0,0,.45c.22,2.4-1.31,3.07-3,3a92.76,92.76,0,0,0-10.28.12c-.71,0-1.43.06-2.15.11A2.15,2.15,0,0,1,150.85,54.65Z"></path><path class="cls-habit-logo-co-4" d="M59.09,126.59c.25-.08.39.12.55.22A13.68,13.68,0,0,0,66.1,129a18.3,18.3,0,0,0,5-.18,10.54,10.54,0,0,0,5.31-2.94c.27-.25.56-.67,1-.46s.49.72.51,1.18.07.9.11,1.35a9.58,9.58,0,0,1-5.37,2.78c-4.77.68-9.19,0-12.9-3.39A2.67,2.67,0,0,1,59.09,126.59Z"></path><path class="cls-habit-logo-co-4" d="M58.32,77.39A3.15,3.15,0,0,0,61.61,77a12.32,12.32,0,0,1,5-1.63,20.13,20.13,0,0,1,7.34.2,3.75,3.75,0,0,1,2.86,2.16,19.17,19.17,0,0,0-12.11.53,12.92,12.92,0,0,0-1.84,1,2.35,2.35,0,0,1-2.11.17A3.43,3.43,0,0,1,58.32,77.39Z"></path><path class="cls-habit-logo-co-4" d="M115.91,63.69a1.15,1.15,0,0,1-1.3.28c-.4-.15-.41-.59-.43-1-.19-3.56-.91-7-1.42-10.55-.19-1.32-.2-2.66-.27-4a14.9,14.9,0,0,0-.33-3.12,2.79,2.79,0,0,1,2,2.5c.2,1.46.2,2.93.27,4.4.14,2.78.78,5.47,1.16,8.2A23.66,23.66,0,0,1,115.91,63.69Z"></path><path class="cls-habit-logo-co-4" d="M193.61,64.54c-.41,0-.83,0-1.23-.09a.68.68,0,0,1-.58-.66,18.72,18.72,0,0,1,.06-3.89,51.08,51.08,0,0,0,0-5.25c-.06-1,0-2.11,0-3.16a14.26,14.26,0,0,0-.22-2.43,2.82,2.82,0,0,1,2,2.88c.06,1.56-.05,3.13.06,4.69C194,59.29,193.65,61.91,193.61,64.54Z"></path><path class="cls-habit-logo-co-4" d="M171.76,80.8h1.11c1,0,1.39.37,1.37,1.45a2.55,2.55,0,0,1,0,.39h-.62A1.65,1.65,0,0,1,171.76,80.8Z"></path><path class="cls-habit-logo-co-4" d="M136.4,64c-.18,0-.2-.13-.28-.22A.39.39,0,0,1,136.4,64Z"></path><path class="cls-habit-logo-co-4" d="M58.84,126.34c.13,0,.3,0,.25.26A.46.46,0,0,1,58.84,126.34Z"></path><path class="cls-habit-logo-co-4" d="M136.53,64.24c-.13,0-.17-.09-.14-.22C136.48,64.07,136.6,64.1,136.53,64.24Z"></path><path class="cls-habit-logo-co-4" d="M123,79.66a3.08,3.08,0,0,0-1.64-.32,2.59,2.59,0,0,0-1.52,1.11A6.34,6.34,0,0,0,118.68,85c.3,3.34.53,6.69,1,10a119.58,119.58,0,0,0,2.23,13.13c.06.25.15.49.23.74a4.15,4.15,0,0,1-2.15-2.78c-.67-2.62-1-5.31-1.46-8-.3-2-.61-3.94-.85-5.9-.18-1.48-.26-3-.4-4.44s-.25-2.7-.4-4a7,7,0,0,1,1.08-5.06,2.31,2.31,0,0,1,3.48-.7A4.38,4.38,0,0,1,123,79.66Z"></path><path class="cls-habit-logo-co-4" d="M75.87,97.93c-2.5-.51-4.29.75-5,3.49a10.12,10.12,0,0,0-.27,2.57c0,1.94,0,3.88,0,5.82a10.41,10.41,0,0,0,.77,3.85,3.46,3.46,0,0,1-2-2.19,10.73,10.73,0,0,1-.68-3.76c0-2,0-4,0-6a6.64,6.64,0,0,1,1.79-4.86A3.24,3.24,0,0,1,75.87,97.93Z"></path><path class="cls-habit-logo-co-4" d="M76,98s-.13,0-.1-.08Z"></path><path class="cls-habit-logo-co-4" d="M204.63,125.83l.86,1.37a.54.54,0,0,1-.74-.17.35.35,0,0,1-.06-.14c-.15-.3-.35-.57-.52-.87s-.3-.24-.51-.22-.15.25-.16.4a5.08,5.08,0,0,0,0,.78c0,.23-.08.29-.3.3s-.27-.11-.27-.31v-2.83c0-.22.09-.28.3-.28h1c.72,0,1.08.24,1.18.73S205.32,125.49,204.63,125.83Zm-.7-.48c.44,0,.91,0,.91-.5s-.54-.47-.93-.53-.41.22-.44.53S203.58,125.42,203.93,125.35Z"></path></svg>