<svg version="1.1" id="Layer_1" xmlns="http://www.w3.org/2000/svg" xmlns:xlink="http://www.w3.org/1999/xlink" x="0px" y="0px" viewBox="0 0 210 210" style="enable-background:new 0 0 210 210;" xml:space="preserve">
<style type="text/css">
	.kfclogo-st0{fill:#FFFFFF;}
	.kfclogo-st1{fill:#FFFFFF;stroke:#000000;stroke-miterlimit:10;}
	.kfclogo-st2{fill:#EE302A;}
</style>
<title>KFC Logo</title>
<g>
	<path class="kfclogo-st0" d="M194.6,202v3.4h-0.5V202h-1.1v-0.5h2.7v0.5H194.6z M199.3,205.4v-2.8l-0.9,1.8h-0.5l-0.9-1.8v2.8h-0.5v-3.9
		h0.5l1.2,2.4l1.2-2.4h0.5v3.9L199.3,205.4z"></path>
	<path class="kfclogo-st1" d="M198.2,4.6H11.8c-3.9,0-7.1,3.2-7.1,7.1c0,0.2,0,0.4,0,0.6l14.8,186.4c0.3,3.7,3.4,6.6,7.1,6.6h156.8
		c3.7,0,6.8-2.8,7.1-6.6l14.8-186.4c0.3-3.9-2.6-7.3-6.5-7.6C198.6,4.6,198.4,4.6,198.2,4.6"></path>
	<g>
		<path class="kfclogo-st2" d="M54.8,9.9H13.6c-1.9,0-3.5,1.5-3.5,3.4c0,0.1,0,0.2,0,0.3l10.6,133.1h34.1V9.9z"></path>
		<path class="kfclogo-st2" d="M189.3,146.7l10.6-133.1c0.2-1.9-1.3-3.6-3.2-3.7c-0.1,0-0.2,0-0.3,0h-41.3v136.8H189.3z"></path>
	</g>
	<path d="M81.2,95.3c0.1,2.6,1.6,9.3,10.2,15.8c3.6,2.7,5.2,3.9,5.7,4.2l0,0c0.2,0.2-1.3,0.1-1.7,0.2c-1.6-0.1-3.2,0-4.8,0.2
		c-1.7,0.3-1.4,0.7-1.6,1.9c-0.1,1,0,2.5-0.1,3.8s-0.1,2.2,0.4,2.8s0.9,0.7,3.2,0.6s8.2-0.1,8.9-0.3c0.9-0.2,0.8,0.1,0.2,1.3
		c-0.9,2-3.9,11-8.6,19.6c-0.7,1.2,1.2,0.6,2.7,1.4c2.8,1.4,2.7,1.7,3.5,0.3s4.9-11.1,5.5-14.1c0.1-0.4,0.2-0.7,0.3-0.1
		c0,0.4,0.1,12.6-0.2,16.4c0,0.2,0,0.4,0.2,0.6c0.2,0.2,0.5,0.3,0.8,0.4l0,0c1.5-0.5,3-0.7,4.6-0.6l0.4-0.1c0.1-0.1,0.2-0.1,0.2-0.2
		c0.1-0.2,0.2-0.4,0.2-0.7l0,0c0.1-0.3,0.1-0.6,0.2-1c0-0.2,0-0.4,0-0.6c0-0.2,0-0.5,0-0.8v-0.9v-1.1c0-0.4,0-0.8,0-1.2s0-0.3,0-0.7
		s0-0.9-0.1-1.4s0-1-0.1-1.4s-0.1-1-0.1-1.5s-0.1-1-0.1-1.5s-0.1-1.1-0.2-1.6s-0.1-1.1-0.2-1.6s-0.1-1-0.2-1.6s-0.2-1-0.2-1.6
		s-0.2-0.7-0.3-1.2s-0.2-1-0.3-1.5s-0.2-0.9-0.4-1.4s-0.2-0.7-0.3-1.1c0-0.1-0.1-0.6-0.1-0.6s0.3,0,0.5-0.1h0.2
		c1.6-0.1,3.2-0.1,4.8,0c0.6,0,3.7,0.3,4.5,0.4s1.9,0.3,1.9-2.3c0-0.7,0-1.1,0-1.8v-0.7c0-0.1,0-0.2,0-0.3c0-0.1,0-0.2,0-0.3V119
		c0-0.2,0-0.3,0-0.4c0,0,0-0.1,0-0.1c0-0.1,0-0.2,0-0.3v-0.1c0-0.1,0-0.1,0-0.2l0,0c0-0.1,0-0.2,0-0.3c0.2-0.9-0.4-1.8-1.3-2.1
		c-2-0.4-4-0.4-6-0.2c-0.3,0-0.4,0-0.3-0.1l0,0c2.6-1.5,5-3.3,7.2-5.3c4-3.6,5.9-5.4,7.1-8c0,0,4.3-8.4,4.1-15.6
		c-0.1-1.4,0.2-1.3,1.1-1.3c0.6,0,1.3-0.1,1.9-0.4c1.8-0.4,3.5-6.7,3.5-6.7s2.8-9.6,3.4-13.5c0.6-3.5,0.4-5.5-1.7-6.5l-0.4-0.2
		c-0.2-0.1-0.2-0.3-0.2-0.5c0-0.1,0.1-0.3,0.1-0.5c1-3.6,2.9-8.2,2.5-10c-0.1-0.4-0.3-0.7-0.7-0.8c-0.5-0.5-0.8-1.1-1.1-1.8
		c0-0.1-0.1-0.2-0.1-0.3c-0.6-8.5-4.2-16.6-10.2-22.7c0,0-0.5-0.5-0.8-0.7c-0.6-0.5-1.4-1.2-2.3-1.9c-2.1-1.6-4.3-3-6.6-4.1
		c-1.9-0.9-4-1.6-6.1-2.1l-1-0.2c-0.5-0.1-1.3-0.3-2.2-0.4c-2.3-0.4-4.7-0.5-7-0.4H103h-0.5h-0.5c-0.5,0-1.2,0.1-1.9,0.2
		c-1.2,0.2-2.4,0.4-3.2,0.6s-2,0.4-3.5,0.9l-1.8,0.6l-0.5,0.2c-0.7,0.2-1.3,0.4-2,0.7c-0.5,0.2-2.5,1.1-3,1.2
		c-0.2,0.1-0.5,0.2-0.8,0.4c-1.4,0.5-1.7,1.3-1.8,1.7c0,0.3-0.1,0.6-0.2,0.9c-2.1,4.4-6.9,4.8-8.9,4.9c-0.5,0-0.9,0.1-0.8,0.6
		c0.9,1.8,2.3,3.2,4.1,4c0,0.2-1.2,0.5-1.4,0.5c-1,0.1-2,0.1-3,0l0,0c-1.7,0-3.2,1.2-3.7,2.8c-0.1,0.3,0,0.5,0.1,0.8
		c0.7,0.9,1.2,1.8,1.6,2.8l0,0c0.1,0.3,0.2,0.7,0.3,1c0.3,0.6,0.3,1.4,0,2c-0.9,1.7-3.1,2.3-3.5,4c-0.5,2.4,0.4,4,1.3,8.1
		c0.5,2.3,1.1,4.6,1.8,6.9c0,0.1,0,0.1-0.1,0.2c-0.2,0-0.5,0.1-0.7,0.2C69.2,58,68.8,59,68.7,61c-0.3,4.4,2.9,11.2,3.9,17
		c0.3,2,1.2,5.1,2.8,6.4c0.5,0.3,1,0.5,1.5,0.6c1.2,0.2,1.7-0.5,1.8,0.6c0,0.2,0.1,0.9,0.1,1.3C79,89.8,79.9,92.6,81.2,95.3
		 M83.2,25.3c0.4-0.5,0.9-1,1.5-1.3c2.1-1.6,4.4-2.8,6.8-3.8c0.5-0.2,0.7-0.2,1-0.3s0.8-1.1-0.1-1.2c-0.6-0.1-1.3-0.1-1.9-0.1
		c-0.5,0-0.8-0.3-0.4-0.7c0.7-0.6,1.4-1,2.3-1.3c2.6-1.1,7.3-1.6,9.5-1.8c1.7-0.2,3.3-0.3,5-0.1c1.3,0.1,2.5,0.3,3.8,0.6
		c3.6,0.8,7.2,2.1,10.4,4c1.7,1,3.4,2.2,5,3.5c4.8,3.8,10.3,10.9,9.5,25.9c0,1.1-0.2,2.1-0.4,3.2c-0.1,0.4-0.7,1.2-1,0.2
		c-1-3.2-2.3-8.9-5.2-13.3c-0.4-0.6-1-0.6-1,0.1c0,0.3,0.2,3.1,0.1,3.7c-0.5,3.7,0.6,2.3,2.3,6.2c0.6,1.7,1.1,3.4,1.4,5.2
		c0,0.4,0.1,0.8,0.1,1.3s-0.3,0.6-0.3,0.6c-1.1,0-3.1-0.5-4.2-0.6c-1.2,0-9.7-0.1-12.8,0.1c-2.5,0.2-4.8,1.1-6.6,2.8
		c-0.3,0.2-0.7,0.4-1,0.6c-0.1,0.1-0.3,0.1-0.4,0l-0.8-0.2c-0.8-0.2-1.7-0.2-2.5,0c-0.8,0.2-1.1,0.4-1.9,0c-1.2-0.7-3-3.4-9.2-3.5
		c-3.5,0-8.2-0.1-10.9,0c-0.9,0-1.3,0.1-1.6,0.1c0-0.1,0-0.2,0-0.3c0-5,3.2-3.9,3.6-5.2c0.9-3.2,1.1-11,6.8-15.8
		c1.7-1.7,4.2-2.6,6.6-2.4c2.3,0,4.6,0.5,6.7,1.4c1.1,0.5,1.6,0.9,2,0.6s1.5-1.3,2-1.7s0.3-0.9-0.1-1.3s-4.4-5.4-10.6-6.4
		c-1.2-0.3-2.5-0.4-3.7-0.5c-1,0-1.9,0-2.9,0.2c-2.5,0.5-5,1.3-7.4,2.4C82.7,26.2,83.1,25.5,83.2,25.3 M131.5,57.7
		c-0.3,0.3-0.5,0.1-1,0.2s-0.7,0.3-1.1,0.3c-0.4-0.1-0.8-0.5-0.7-0.9c0-0.1,0.1-0.2,0.1-0.3c0.5-0.7,1.2-0.1,1.8,0
		c0.3,0.1,0.5,0,0.7,0.1S131.6,57.4,131.5,57.7 M123.1,60.2c-0.6-0.4-1.1-0.8-1.5-1.4c-0.2-0.3-0.1-0.6,0.3-0.6c1.7,0,3.2,0,4,0.6
		c0.5,0.5,0.6,1.3,0.3,2c-0.3,0.7-0.9,0.5-1.3,0.5C124.3,61,123.7,60.6,123.1,60.2 M123.9,63.2c-0.6,0-1.3-0.1-1.8-0.4
		c-0.7-0.4-1.4-0.8-2-1.4c-0.8-0.5-1.7-0.8-2.7-0.7c-0.7,0-1.4,0.2-2.2,0.3c-0.6,0.1-0.6-0.4-0.5-0.6c0.8-0.7,1.8-1.2,2.8-1.4
		c0.3-0.1,0.7-0.1,1,0c0.9,0.2,1.7,0.6,2.3,1.2c0.8,0.8,1.7,1.5,2.7,2.2C123.8,62.6,124.6,62.8,123.9,63.2 M98,75.8
		c0.2,0.4,0.3,0.8,0.2,1.2c-0.1,0.3-1.1,0.7-1.9-0.6c-0.7-1.1-0.7-2.4,0.1-3.5c0.8-1,2-0.3,1.9,0.1C97.7,73.9,97.7,74.9,98,75.8
		 M86.1,61.5c0.3-0.2,0.7-0.4,1-0.5c0.5-0.3,1-0.6,1.6-1c1.2-0.7,2.5-1.2,3.8-1.3c0.8,0,1.6,0.3,2.2,0.9c0.6,0.6,0.7,1.4,0,1.2
		c-1-0.2-2-0.2-3,0c-1.2,0.3-2.4,0.8-3.5,1.3c-0.6,0.3-1.2,0.4-1.9,0.5C86.1,62.5,85.4,62.1,86.1,61.5 M85,60.1
		c-0.8,0.5-1.5,1-2.1,1.4s-1.7,0-1.4-1c0.3-0.9,1.1-1.6,2-1.9c0.2,0,0.7-0.1,1.2-0.2s1.1-0.1,1.4-0.1c0.8,0,0.9,0.6,0.3,0.9
		C86.1,59.4,85.6,59.7,85,60.1 M72.2,44c0.7-1.6,1.6-3.1,2.7-4.5c0.8-1,0.4-2.3,0-3.5c-0.3-0.9-0.6-1.7-1.1-2.5
		c-0.1-0.2-0.1-0.4,0-0.5l0.1-0.1l1.5-0.1c3.1-0.4,6.2-1.3,9.1-2.6c0.6-0.3,1.1-0.6,1.7-0.8c0.7-0.3,1.4-0.4,2.2-0.6
		c0.6-0.1,1.2-0.2,1.8-0.2c0.8-0.1,2.2,0.5,1.8,0.7c-2.6,0.9-5,2.5-6.9,4.6c-1.1,1.3-2,2.8-2.8,4.4c-0.5,0.8-1.2,1.4-1.9,1.9
		c-0.8,0.6-1.3,1.4-1.7,2.3c-1.4,3.8-2.2,7.9-2.2,11.9c0,0.8-0.2,1.6-0.9,1.8l0,0c-0.6,0.2-1.1,0.6-1.2,0.2
		c-0.4-1.5-1.3-4.6-1.7-6.5c-0.1-0.6-0.2-1.2-0.4-1.9C72.1,46.7,72,45.4,72.2,44 M75.8,75.2c-1.2-0.8-1.1-1.9-1.4-2.9
		c-0.7-2.2-1.3-4.8-2-7.1c-0.4-1.4-0.5-4.5,1.4-4.5c0.8-0.1,1.6,0.4,1.9,1.2c0.7,1.9-0.6,1.6-0.2,3.9c0.2,1.6,0.5,3.2,1,6
		c0.2,1.3,0.7,4.3-0.5,3.6 M80.3,58.3c-0.4,0-0.7-0.2-1.1-0.3s-0.8,0-1-0.2s-0.1-0.5,0.1-0.6c0.2-0.1,0.5-0.1,0.7-0.1
		c0.6-0.1,1.2-0.7,1.7,0c0.3,0.4,0.2,0.8-0.2,1.1C80.5,58.2,80.4,58.3,80.3,58.3 M81.1,71.7C81,71,81.3,69.9,83,71
		c0.6,0.3,1.3,0.6,2,0.8c0.4,0.2,0.8,0,1-0.4c0,0,0,0,0,0c0.2-0.4,0.6-1.2-0.2-1.5c-1.7-0.5-3-1.7-3.7-3.3c-0.1-0.4,0-0.9,0.4-1.1
		c0.4-0.1,0.7,0,1,0.3c0.5,0.5,1.1,0.9,1.8,1.1c0.3,0.1,0.7-0.1,0.8-0.4c1.1-1.7,3-2.6,5-2.4c1.3,0.2,2.4,0.4,2.8,0.5
		c0.6,0,1.3,0,1.9-0.1c0.9-0.2,2.3-0.5,1.6,0.3s-1,0.9-0.5,1.6l0.1,0.1c0.4,0.6,0.4,1.4,0,2v0.1c-0.7,0.9-2.1,1.9-5,2.1
		c-1.3,0.1-1.4,0-1.4,0.8c0,0.2,0,0.4,0,0.6c0.1,0.4,0.3,0.5,1.2,0.6c0.7,0,1.4,0,2.1-0.1c0.3-0.1,0.7,0.1,0.4,0.3
		c0,0-0.2,0.2-0.2,0.2c-0.5,0.6-0.8,1.3-0.9,2.1c0,0.4-0.3,0.7-0.6,0.9l0,0c-1.2,0.4-2.4,0.9-3.5,1.7c-1.3,1.1-4.1,2-5.3,0.7
		s-2.2-4.4-2.7-6.6 M93.8,103.5c-2.4,0.1-8.6-3.7-11.4-14.4c-0.7-2.8,1-5,2.1-5.4c0.4-0.2,0.8-0.3,1.2-0.3c0.6-0.1,1.2,0.3,1.3,0.9
		c0,0.1,0,0.2,0,0.3c0,1,0.8,9.3,3,12.3c0.5,0.7,1,0.8,1.3,0.1s0.6-1.4,0.7-1.7s0.9-1.4,1.1-0.5c0.6,2.4,1.3,4.7,2.2,7
		C96.1,103.6,94.7,103.6,93.8,103.5 M95.4,86.3c-3.1,0-4.6-1.2-4.8-1.6s0.2-0.6,0.5-0.7c0.9-0.3,1.8-0.8,2.6-1.3
		c0.5-0.4,2-1.3,2.7-1.8c0.3-0.2,2.3-1.1,3.5-0.3c1.8,1.4,4.1,2.1,6.4,1.9c1.9-0.1,1.9-1.7,3.5-2.2c0.8-0.2,1.5-0.6,2.1-1.1
		c0.6-0.2,1.2-0.1,1.6,0.3c0.8,0.7,1.1,1.3,2,2.3c0.8,1,1.9,1.7,3.1,2.2c0.4,0.1,0.7,0.4,0.7,0.6s-0.2,0.6-1.4,1
		c-3.7,1-7.6,0.8-11.1-0.5c-1.2-0.6-2.5-0.6-3.7,0C101.8,85.8,98.3,86.3,95.4,86.3 M111,88.8c-1.2,0.4-2.5,0.7-3.8,0.8
		c-1,0-4.2,0.3-4.8,0.2c-0.8-0.1-1.7-0.4-2.3-1c-0.1-0.1-0.3-0.6,0.3-0.6c3.1-0.4,6.2-0.4,9.4-0.1l1.2,0.1
		C111.2,88.3,111.7,88.6,111,88.8 M138.4,64.1c-0.9,4.5-1.8,6.7-2.4,9.5s-1.9,7.1-3.1,7.2c-1.2,0.4-1.7-1-2.5,0
		c-0.5,0.6-0.8,1.4-1.2,2c-0.3,0.5-0.5,1-0.5,1.5c0,2.3-0.3,4.6-0.8,6.9c-0.7,4.1-2.5,8-5.2,11.3c-2.1,2.6-4.9,4.5-8.1,5.5
		c-0.5,0.2-1.2,0.2-1.7,0c-0.3-0.1-0.5-0.5-1-0.9s-0.7,0.2-0.7,0.4s0.2,2.3-0.3,3.3c-1.2,2.1-2.3,2.3-3,4.9
		c-0.2,0.9-0.1,2.2-1.1,1.6c-2.6-1.5-6.3-5.5-7-9.3c-0.2-1.2,0-2.5,0.7-4.7c0.4-1.2,0.6-2.4,0.7-3.6c0-1.5-0.6-2.8,0-2.9
		c1.1-0.2,1.6,2.6,2.1,2.3c0.9-0.5,0.2-3.5,0.2-3.5c-0.4-0.7-1.1-1.1-1.9-1.2c-0.9-0.2-1.2-0.9-0.2-1.3c0.7-0.5,1.6-0.7,2.5-0.7
		c6.4,0.9,8.2-0.4,10.8-1.1c0.4-0.2,0.8-0.2,1.2,0c0.4,0.2,1.4,0.8,1.7,1.3s0,2.7,0.3,4.2s1.5,0.2,1.8-0.5c0.3-0.8,0.5-1.7,0.6-2.6
		c0.1-0.9,0.5-1.8,1-2.5c0.8-0.8,1.5-1.7,1.8-2.8c0.4-1.4,0.5-2.8,0.4-4.3c-0.1-2.2-0.5-2.5-1-3s-1.2-0.4-2.5-1.6
		c-1.1-1.2-2.2-2.6-3.1-4c-1-1.3-2.4-2.3-4-2.8c-1.7-0.4-1,1.1-0.9,1.6s0.5,1.7-0.1,2.1s-3.8,2.7-6.8,1.9c-3.6-0.9-4.8-2.9-4.9-4.8
		c0.1-1.5,0.6-3,1.4-4.2c0.5-1.2,0.8-2.6,0.9-3.9c0.1-1.2,0.4-2.3,0.7-3.5c0.3-0.6,0.9-1,1.6-0.8c0.8,0,1.6,0.5,1.8,1.4
		c0.6,2.9,1.6,3.6,2,3.8s1-0.2,1.2-0.4s0.9-0.8,0.7-1.2c-0.2-0.4-0.4-0.8-0.6-1.2c-0.1-0.5,0.6-0.5,0.7-0.4c1.1,0.9,2.2,1,4.1,1.3
		c3.4,0.6,3.9-0.7,6.2-0.3c0.4,0.1,0.8,0.3,1.1,0.7c0.2,0.3,0.4,1,0.7,1.1c0.4,0.1,0.9,0.2,1.3,0.2c0.5,0.1,1.4,0,1.2,1
		c-0.4,2.4-3.2,3.1-4.5,3.3c-0.3,0-0.6,0.1-0.9,0.2c-0.3,0.5-0.3,1.1,0,1.5c0.2,0.3,1.3,0.4,2.8,0.1c1.7-0.3,3.2-1.3,4.1-2.8
		c1.2-1.9,1.9-6.1,2-6.9s0.4-2.1,0.9-2.4c0.9-0.4,1.8-0.7,2.7-0.8c0.3,0,0.6,0.2,0.7,1s-0.1,5.4-0.1,6.1s0.4,0.7,0.6,0.6
		c0.9-0.4,1.6-1.1,2-2c0.2-0.7-0.4-1.7-0.1-2.7c0.5-1.5,0.9-1.9,1.2-1.9C138.5,60.7,138.9,61.6,138.4,64.1 M165.3,158.2
		c0.6,0.2,0.9,0.7,0.8,1.3l-2,9c-0.1,0.4-0.5,0.7-0.9,0.7h-2.8c-0.5,0-0.9-0.4-0.9-0.9c0,0,0,0,0-0.1V168c0.1-2.9-1.7-5.1-5.9-5.1
		c-6.9,0-12,5.7-12.7,13.2c-0.7,7.7,4.7,12.2,12.2,12.2c2.9,0,5.8-0.4,8.6-1.3c0.5-0.2,1,0.1,1.2,0.6c0,0.1,0.1,0.3,0,0.4l-0.9,4.6
		c-0.1,0.4-0.4,0.7-0.7,0.8c-4,1.2-8.2,1.7-12.4,1.6c-15.7,0-22-9-21-18.2c0.9-8.2,6.3-20.2,27.6-20.2
		C158.8,156.8,162.1,157.3,165.3,158.2 M77.1,158.2c0.1-0.5,0.5-0.8,1-0.8h15.3c0.5,0,0.9,0.4,0.9,0.9c0,0.1,0,0.1,0,0.2l-0.5,2.4
		c-0.1,0.4-0.4,0.7-0.8,0.7h-0.1c-1.8,0.2-3.5,0.8-5,1.9l-12.8,10.7l0,0l9.8,13.3c1.9,2.4,2.9,2.9,4.8,2.9c0.6,0,1,0.5,1,1
		c0,0.1,0,0.1,0,0.2l-0.5,2.4c-0.1,0.4-0.5,0.7-0.9,0.7h-7.7c-8.5,0-10.8-3.7-17.9-16.6l0,0l-2.1,9.4c-0.3,1.5,0.9,2.2,1.8,2.6h0.1
		c0.4,0.2,0.7,0.6,0.6,1.1l-0.6,2.8c-0.1,0.4-0.5,0.7-0.9,0.7H44.9c-0.6,0-1-0.4-1-1c0-0.1,0-0.1,0-0.2l0.5-2.4
		c0.1-0.4,0.4-0.8,0.9-0.8h0.1c1.6-0.2,3.3-1.2,4.4-6.2l4-18.4c0.5-2.4-0.7-3.4-1.8-3.8h-0.2c-0.5-0.2-0.8-0.7-0.7-1.2l0.5-2.5
		c0.1-0.5,0.5-0.8,1-0.8h17c0.5,0,0.9,0.4,0.9,0.9c0,0.1,0,0.1,0,0.2L70,161c-0.1,0.4-0.3,0.6-0.7,0.8h-0.1
		c-1.2,0.3-2.1,1.3-2.4,2.5l-2.2,10.2l0,0l13.1-10.9c0.5-0.3,0.7-0.9,0.4-1.4c-0.1-0.3-0.4-0.4-0.7-0.5l0,0
		c-0.5-0.1-0.8-0.7-0.7-1.2L77.1,158.2 M124.4,168.4c-0.5,0-1-0.5-0.9-1.1c0,0,0-0.1,0-0.1c0.2-2.3-0.7-3.7-3.3-3.7h-8.1l-2.2,9.9
		h11.6c0.5,0,0.9,0.4,0.9,0.9c0,0.1,0,0.2,0,0.2l-1.1,5.1c-0.1,0.4-0.5,0.7-0.9,0.7h-12c0,0-1.3,6.1-1.4,6.3
		c-0.3,1.4,0.4,2.9,1.8,3.4l0.1,0.1c0.4,0.2,0.6,0.6,0.5,1l-0.6,2.8c-0.1,0.4-0.5,0.7-0.9,0.7H93.8c-0.5,0-0.9-0.4-0.9-0.9
		c0-0.1,0-0.1,0-0.2l6.2-27.9c0.6-1.5-0.2-3.2-1.7-3.8c-0.1,0-0.1,0-0.2-0.1h-0.1c-0.5-0.2-0.7-0.7-0.6-1.1l0.5-2.5
		c0.1-0.5,0.5-0.8,1-0.8h31.5c0.6,0,1,0.5,0.9,1.1c0,0,0,0,0,0.1l-2,9.2c-0.1,0.4-0.5,0.7-0.9,0.7L124.4,168.4"></path>
</g>
</svg>