<svg id="Layer_1" data-name="Layer 1" xmlns="http://www.w3.org/2000/svg" viewBox="0 0 210 210">
  <defs>
    <style>
      .class-phhome-logo-1 {
        fill: #ef373e;
      }

      .class-phhome-logo-2, .class-phhome-logo-3 {
        fill: #fff;
      }

      .class-phhome-logo-2 {
        fill-rule: evenodd;
      }

      .class-phhome-logo-4 {
        fill: #eb1c2d;
      }
    </style>
  </defs>
  <title>Pizza Hut Logo</title>
  <g>
    <path class="class-phhome-logo-1" d="M149.58,17.86c46.62,14.69,53.16,69,53.16,69,1.29,7,1.15,29.53-1.56,40.66-1.84,7.67-3.54,28-36.75,54-6.44,5.06-14,10.81-21.7,11.57-1,.1-1.93.17-2.4-.55s1-2.56,1.36-2.79c20.15-12,48.14-32.25,49.33-80.15,0,0,2.8-45-25.05-66.29C157,36.49,144.07,28.73,134,26c-1.46-.42-15.49-3.54-15.87-1.18-.53,3.37,5.18,3.6,8,3.68,6.71.19,14.94,4.33,16.8,5.25C167,45.53,173.35,59.39,175.47,62.77c9.35,14.84,9,43.32,9,47.42.32,25.72-13.21,43.31-19.26,51.67-10.31,14.24-33.61,32.44-71.5,35.63a87.45,87.45,0,0,1-47.63-10c-6.15-3.36-18.54-13.37-24.72-24.91-1.81-3.37-5.27-12.11-1.18-12.94,2.48-.5,6.06,7,12.76,14.28,6.09,6.59,12.3,12.69,21.35,17.13,12,5.91,26.59,9.26,32.63,8.3a1.07,1.07,0,0,0,.16-2.13c-3.73-.88-11-1.53-17.1-3.68-9.49-3.35-26.92-14.33-37-27.22-3.76-4.8-9.39-15.95-10.48-24.2-1.9-14.32-1.26-34.67-.6-38.63,3.87-23,16.25-36.33,25.69-44.64,9.3-8.15,26.42-14,30.83-16.05a.73.73,0,0,0-.17-1.36,7.14,7.14,0,0,0-2.65.24c-.62.16-1.31.29-2,.43-1.94.4-56.92,12.82-57.51,79.61,0,6-5.25,2.58-5.89-1.11A70.42,70.42,0,0,1,11,81.41C15.23,63.52,26.36,49.3,37.38,39.9,53.5,26.13,76,18.17,94.67,14.91c15.92-2.79,28.88-5.26,54.91,2.95"></path>
    <path class="class-phhome-logo-1" d="M14.59,143c2.9.53,3.64-1.85,3.42-2.93a45.53,45.53,0,0,1-.77-7.49c-.16-2.8-.45-6.13-2.28-8.42a4.84,4.84,0,0,0-3.75-1.86c-6.81-.14-4.58,10.81-3.56,14.47A8.36,8.36,0,0,0,10.11,141a9.62,9.62,0,0,0,4.48,2"></path>
    <g>
      <path class="class-phhome-logo-2" d="M97.49,89.51a1,1,0,0,1,1.07.59,2,2,0,0,1-.26,1.47c-.6,1.19-1.39,2.41-2,3.46-.47.75-1,1.51-1.44,2.22a7.78,7.78,0,0,1-1.63,2,2.61,2.61,0,0,1-1.18.46c-2.1.23-3.15-1.45-2.68-3.5a7.66,7.66,0,0,1,1.3-2.52A11.74,11.74,0,0,1,96,90a5.91,5.91,0,0,1,1.48-.46"></path>
      <path class="class-phhome-logo-2" d="M163.58,103.24v.49a3.29,3.29,0,0,1-1.87,1.92,8.66,8.66,0,0,1-2.84.95c-2.33.36-4.72-.29-5.66-1.73a19.36,19.36,0,0,1-6.24,4,10.86,10.86,0,0,1-2.75.68c-2.3.26-4-.47-4.9-1.79a6.69,6.69,0,0,1-.36-5.59,13.07,13.07,0,0,1,2.55-4.29,18.59,18.59,0,0,1,3.59-3.23A17,17,0,0,1,156,91.74a2.15,2.15,0,0,1,2-.44c1.43.45,1.27,2.41.92,3.89a20.52,20.52,0,0,0-.92,4.42,2.32,2.32,0,0,0,.76,1.93,3.39,3.39,0,0,0,1.83.82c1,.16,2.71-.18,2.94.88M148.05,98.7a9.86,9.86,0,0,0-2.46,2.9,2.13,2.13,0,0,0-.35,1.37c.54.47,1.31.12,1.86-.1a19.73,19.73,0,0,0,4-2.12,2.73,2.73,0,0,0,.72-.52c.05-.13.06-.36.1-.52a31.75,31.75,0,0,1,1-3.57h-.06a13.67,13.67,0,0,0-4.74,2.56"></path>
      <path class="class-phhome-logo-2" d="M126.51,108.17a38.41,38.41,0,0,1,5.68,1,13.27,13.27,0,0,0,4.62,0c.4-.09,1-.3,1.36-.14a1,1,0,0,1,.4,1.14,3.46,3.46,0,0,1-1.54,1.81,10.38,10.38,0,0,1-2.18,1.1,16.75,16.75,0,0,1-5.7.92c-2.12,0-4.21-.16-6.37-.23a19.68,19.68,0,0,0-4.57.33,5.44,5.44,0,0,1-1.42.23,1.58,1.58,0,0,1-1.33-1.73,4.66,4.66,0,0,1,.79-2.5,24.29,24.29,0,0,1,4.63-5.16c2.3-2.1,4.64-4.06,6.91-6.17-1.18.14-2.24.26-3.34.36-2.22.18-4.86.35-6.44-.56a3.1,3.1,0,0,1-1.57-2.09,1.94,1.94,0,0,1,1.63-2.52,6.87,6.87,0,0,1,1.24.17,15.25,15.25,0,0,0,3-.27c2-.24,3.78-.5,5.76-.72,1-.11,2-.31,3-.36,2.07-.1,3.78.45,4.54,1.71a3.05,3.05,0,0,1,.36,1.72,6.34,6.34,0,0,1-1.9,3.5c-2.46,2.84-5.1,5.77-7.58,8.5"></path>
      <path class="class-phhome-logo-2" d="M103.69,115.43a31.7,31.7,0,0,1,6.83-.19c2.15.17,4.27.66,6.25,1a39,39,0,0,0,6.56.65,19.81,19.81,0,0,0,4.82-.59c.92-.22,2-.33,2,.72a2.14,2.14,0,0,1-.78,1.37,7.31,7.31,0,0,1-1.48,1,16.13,16.13,0,0,1-5.65,1.67,30.71,30.71,0,0,1-4.71.07,130.88,130.88,0,0,0-14.28,0,26,26,0,0,0-4.32.56c-1.3.31-2.42,1-3.82,1-1.92,0-3-1.66-2.72-3.63a6.45,6.45,0,0,1,1.37-2.94,47.66,47.66,0,0,1,4.15-4.49c2.16-2.15,4.36-4.26,6.65-6.34.74-.67,1.52-1.29,2.22-2-3,.55-7.56,1.24-10.11-.33a2.59,2.59,0,0,1-1.14-1.24,2.29,2.29,0,0,1,1.21-2.75,5.32,5.32,0,0,1,2.32-.09,32.62,32.62,0,0,0,4.64-.17c2.08-.16,4.21-.46,6.18-.56.57,0,1.16,0,1.7,0,1.61.08,2.8.58,3.17,1.94a4.26,4.26,0,0,1-.68,3.1,17,17,0,0,1-1.28,2c-1,1.28-1.88,2.58-2.85,3.67s-2.14,2.29-3.13,3.37c-.78.83-1.63,1.62-2.42,2.47a5,5,0,0,0-.72.82"></path>
      <path class="class-phhome-logo-2" d="M63.78,106.05a19.12,19.12,0,0,1-.49,5.72A149.59,149.59,0,0,1,59,126.71c-1,3.18-2.07,6.4-3.23,9.58-.51,1.41-1.14,3.09-1.8,4.61s-1.3,3.09-2.6,3.76a2,2,0,0,1-1.55.13C48,144.1,48,141,48.15,138.41a53.14,53.14,0,0,1,2.9-14.61c1-3,1.94-5.93,3-8.63a62.72,62.72,0,0,1,3.83-7.84,6.68,6.68,0,0,1-3.63,0,2.27,2.27,0,0,1-1.36-1.58,3.23,3.23,0,0,1,.32-2.38,7.28,7.28,0,0,1,3.07-2.75,23,23,0,0,1,8-2.19,19.81,19.81,0,0,1,8.28.92,12.28,12.28,0,0,1,4.71,3.11A11.47,11.47,0,0,1,80.48,111a12.14,12.14,0,0,1-.58,3.31A16.71,16.71,0,0,1,73,123a21.08,21.08,0,0,1-5.23,2.58,16.7,16.7,0,0,1-3.18.72,5.57,5.57,0,0,1-3.37-.4,1.08,1.08,0,0,1-.58-1c0-1.29,2-1.66,3-2.07A19.61,19.61,0,0,0,69.83,119a10.27,10.27,0,0,0,2.25-2.78,7.16,7.16,0,0,0,.75-4.15c-.39-2.88-2.34-4.42-4.75-5.33a10.64,10.64,0,0,0-4.3-.72"></path>
      <path class="class-phhome-logo-2" d="M90.26,100.85c1.52-.23,1.95,1.15,2.18,2.58a12.91,12.91,0,0,1,0,3.51c-.55,4.55-2.45,7.48-3.75,11.17a27.17,27.17,0,0,0-.92,2.81c-.25,1.13-.11,2.51-1.21,2.82a2.42,2.42,0,0,1-1.53-.17,4.54,4.54,0,0,1-1.87-2.15,8.57,8.57,0,0,1-.81-3.17,14.77,14.77,0,0,1,1.34-6.58c1.15-2.76,2.85-5.11,4.12-7.85a9.16,9.16,0,0,1,1.43-2.54,2.11,2.11,0,0,1,1-.43"></path>
      <path class="class-phhome-logo-2" d="M138.28,123.93c3.33-.54,6.38-1.2,9.61-2,.58-.14,2.69-.92,2.84.12.09.67-.72,1.2-1.17,1.52a15.55,15.55,0,0,1-1.7.94A72.62,72.62,0,0,1,136.41,129c-1.67,5-3.11,10.83-4.58,16.34a7.75,7.75,0,0,1-.78,2.19,1.43,1.43,0,0,1-1.5.86,1.6,1.6,0,0,1-.73-.56c-.66-.93-.78-2.78-.85-4.28a42.81,42.81,0,0,1,1.84-13.4,14.26,14.26,0,0,1-2.75-.31,4,4,0,0,1-2-1,2.09,2.09,0,0,1-.43-2.25,2.4,2.4,0,0,1,2.48-1.18c.34,0,.52.19.85.24a8.42,8.42,0,0,0,2-.14c.63-.09,1.2-.25,1.8-.36.85-1.83,1.93-3.9,3-5.69.61-1,1.17-2.21,2.44-2.51a2.28,2.28,0,0,1,2.37,1.13,4.1,4.1,0,0,1-.23,3.12c-.37,1-.75,1.83-1,2.71"></path>
      <path class="class-phhome-logo-2" d="M74.4,163h-.69c-2.43-.4-2.75-3.68-2.41-6.5a54.65,54.65,0,0,1,1.53-7.59A10.8,10.8,0,0,1,69,147.8a2.65,2.65,0,0,1-1.53-3.21c.46-1.35,1.6-1.56,3.2-1.76s3-.33,4.48-.54c0,0,0,0,.06-.06a76.63,76.63,0,0,1,3.86-8.92,23.42,23.42,0,0,1,3.86-5.76c.46-.45,1.39-1.24,2.16-.78,1.12.67.57,3.3.33,4.68-.61,3.36-1.63,6.45-2.37,9.58,0,.12-.12.31,0,.35a48.66,48.66,0,0,0,8-1.56,82.83,82.83,0,0,1,2.65-8.3,20.64,20.64,0,0,1,1.73-3.73c.63-1,1.5-2.37,2.88-2.63,2-.36,1.38,2.55,1.2,3.93-.38,3.23-1,6.15-1.43,9.06.38-.17.81-.28,1.3-.49s1.74-.73,1.87.13a2.11,2.11,0,0,1-.55,1.37,11.41,11.41,0,0,1-3.34,2.52c-.25,1.18-.53,2.42-.79,3.63s-.51,2.34-.78,3.5c-.55,2.32-1,4.75-2.45,6.11a2.87,2.87,0,0,1-3.11.79,3.41,3.41,0,0,1-1.66-2.62,12.44,12.44,0,0,1,.12-4c.18-1.25.48-2.47.69-3.63a50.13,50.13,0,0,1-8.5,2.81c-.77,3.51-1.59,7.31-2.58,10.65a9.12,9.12,0,0,1-.68,2A4.43,4.43,0,0,1,74.4,163"></path>
      <path class="class-phhome-logo-2" d="M116.77,140.8a13.43,13.43,0,0,0-.89,1.18,22.14,22.14,0,0,1-3,3.39,10,10,0,0,1-2.45,1.8,7.61,7.61,0,0,1-3.32.92,3.81,3.81,0,0,1-3.51-1.73c-.82-1.43-.78-3.93-.39-5.72.19-.89.46-1.79.69-2.66.27-1.06.77-2.67.16-3.72a3.5,3.5,0,0,0-1.24-1,1,1,0,0,1-.62-1.05c.11-1,2.06-1.41,3.5-1.3a4.94,4.94,0,0,1,4.14,3.5c.68,2,.27,4.56-.23,6.7a3.07,3.07,0,0,0,1.22-.62,35.43,35.43,0,0,0,3-2.42,28.87,28.87,0,0,0,2.71-2.71,6.66,6.66,0,0,0,.78-1c.23-.44.37-1,.59-1.51.57-1.36,1.28-3.08,2.48-3.79a2,2,0,0,1,2.46.33c.49.69.3,2,.14,3a39.73,39.73,0,0,0,0,12.22,5.7,5.7,0,0,1,.33,1.8,1.19,1.19,0,0,1-.72.88,2.57,2.57,0,0,1-1.57-.12,6.86,6.86,0,0,1-2.73-2.56,9.83,9.83,0,0,1-1.52-3.72"></path>
      <path class="class-phhome-logo-3" d="M119.3,48.62h.49c2.13.35,2.5,2.31,3.21,4.23.89,2.43,1.73,4.77,2.82,7.23a4.49,4.49,0,0,0,.64,1.37,10.86,10.86,0,0,0,2.31.62c5.68,1.35,11.27,2.44,16.63,4.09,2.94.89,6,1.94,8.79,3,1.35.51,2.74,1.08,4.17,1.75s3.39,1.49,3.65,3.35v.53A3.5,3.5,0,0,1,159.19,78a12.84,12.84,0,0,1-1.89.1c-4.43.23-9,.63-13.27,1-15,1.37-29.63,3-43.48,5.58C82,88.18,64.32,92.17,46.49,96h-.55a2.43,2.43,0,0,1-2.42-2v-.39c.27-1.28,1.3-1.93,2.18-2.66.62-.52,1.24-1,1.81-1.47A150.15,150.15,0,0,1,67.13,76.8c2.34-1.26,5.11-2.51,7.54-3.79a2.87,2.87,0,0,0,1.6-1.41c1.2-2.12,2.27-4.3,3.35-6.36.95-1.81,1.8-3.63,2.91-5.4a4,4,0,0,1,1.27-1.5,8,8,0,0,1,1.11-.3c5.64-1.46,11-3.06,16.56-4.56,5.87-1.58,11.85-3.38,17.83-4.86"></path>
    </g>
    <path class="class-phhome-logo-4" d="M174.29,177.59v.56h1.06v3H176v-3h1v-.56Zm6.25,0-1,2.69h0l-1-2.69h-1v3.52h.66v-2.94h0l1,2.94h.53l1-2.94h0v2.94h.67v-3.52Z"></path>
  </g>
</svg>