<svg version="1.1" id="Layer_1" xmlns="http://www.w3.org/2000/svg" xmlns:xlink="http://www.w3.org/1999/xlink" x="0px" y="0px" viewBox="0 0 210 210" style="enable-background:new 0 0 210 210;" xml:space="preserve">
<style type="text/css">
	.tacobell-logo-st0{fill:#FFFFFF;}
	.tacobell-logo-st1{fill:#1D191A;}
</style>
<title>Taco Bell Logo</title>
<g>
	<g>
		<path class="tacobell-logo-st0" d="M159.4,66.3c0-31.9-25.9-57.7-57.7-57.7c-31.9,0-57.7,25.9-57.7,57.7c0,0,0,0,0,0.1l0,44.9
			c0,1,0.8,1.9,1.9,1.9h111.7c1,0,1.9-0.8,1.9-1.9V66.3z"></path>
		<path class="tacobell-logo-st1" d="M147.5,64.2c-2-4.9-18.8-1.2-42.2,11.4C82.4,87.8,68.9,102,70.9,106.3c2.1,4.5,25.7,1.3,44.5-9.1
			C141.1,83,150,70.2,147.5,64.2"></path>
		<path class="tacobell-logo-st0" d="M92.5,99.6c-4,0.1-7.7-1.5-10.4-4.1c5.3-5.3,13.4-11.2,23-16.5c0.9,1.8,1.4,3.8,1.4,6
			C106.6,92.9,100.4,99.4,92.5,99.6"></path>
		<path class="tacobell-logo-st1" d="M56.3,110.1c1.1,1.1,2,1.9,4.6,2.8c0.1,0,0.6,0.2,0.6,0.2H45.8c-1,0-1.9-0.8-1.9-1.9l0-44.9c0,0,0,0,0-0.1
			c0-19.3,9.5-36.4,24.1-46.9v0l-0.7,0.8c-1.5,2-1.3,3.8-0.4,6.3c0.6,1.7-1.2,3.6-2.2,4.7c-4.2,4.6-8.3,10.8-8.8,21.6
			c-0.4,9.9,2.5,18.6,3.5,23.2c1,4.9,1.2,6.5,1.3,7.4c3.7-3.1,7.7-6.2,11.7-9c6.5-4.3,11.7-7.4,16.3-9.9c10.3-5.6,13-5,4.8-0.2
			C85.3,69.1,77.4,74.6,72,79.4C50.9,98.5,54.1,107.9,56.3,110.1"></path>
		<path class="tacobell-logo-st1" d="M159.4,111.3c0,1-0.8,1.9-1.9,1.9H84.4c0,0,1-0.2,1-0.2c9.6-2,20.8-6,32.2-12.4
			c22.6-11.7,37.4-26.8,41.3-37.7l0.2-0.5c0,0,0,0.2,0,0.5c0.1,0.9,0.1,2.3,0.1,3.5V111.3"></path>
		<path class="tacobell-logo-st1" d="M76.4,14.3L76.4,14.3c7.6-3.7,16.2-5.8,25.2-5.8c26.7,0,49.2,18.2,55.8,42.8c0,0-0.9-0.8-2.9-1.7
			c-1.4-0.6-3.5-1.2-6.3-1.7c-3.6-0.7-7.2-0.9-11.3-3.1c-7.4-4-17.2-21.3-32.9-25.8c-7.5-2.2-13.3-1.3-15.7-0.9
			c-1.3,0.2-3.9,0.5-4.8-0.7c-1.9-2.4-3.3-3.9-6.2-3.4C77.1,14.1,76.4,14.3,76.4,14.3"></path>
	</g>
	<g>
		<polygon class="tacobell-logo-st1" points="49.4,161 57.8,161 57.8,133.7 68.4,133.7 68.4,126.5 38.9,126.5 38.9,133.7 49.4,133.7 		"></polygon>
		<path class="tacobell-logo-st1" d="M71,161l1.9-5h13.9l1.9,5h9.3l-14.1-34.5h-7.1L62.1,161H71z M80,136.9l4.2,12.2h-8.7L80,136.9z"></path>
		<path class="tacobell-logo-st1" d="M114.2,161.6c6.8,0,11.2-2.6,14.4-6.3l-7-5.2c-1.5,2-3.9,3.7-7.7,3.7c-5.5,0-8.7-4.2-8.7-10.1
			c0-5.9,3.2-10.2,9-10.2c3.4,0,5.6,1.7,6.9,3.7l6.8-4.9c-3.1-3.8-7.3-6.6-13.7-6.6c-11.6,0-17.8,8-17.8,17.8
			C96.6,153.6,102.7,161.6,114.2,161.6z"></path>
		<path class="tacobell-logo-st1" d="M146.8,161.6c10.9,0,17.6-8,17.6-17.8c0-9.9-6.7-17.8-17.6-17.8c-11,0-17.7,8-17.7,17.8
			C129.1,153.6,135.8,161.6,146.8,161.6z M146.8,133.6c5.5,0,8.8,4.3,8.8,10.2c0,5.8-3.3,10-8.8,10c-5.6,0-8.8-4.2-8.8-10
			C138,137.9,141.2,133.6,146.8,133.6z"></path>
		<path class="tacobell-logo-st1" d="M69.9,182.6c3.3-1.6,4.8-3.8,4.8-7.7c0-5.1-4-8.1-12-8.1H49.4v34.5h15c8.8,0,13-3.2,13-9.9
			C77.4,186.7,74.8,183.6,69.9,182.6z M57.4,173.5h3.3c4,0,5.7,0.8,5.7,3.3c0,2.6-1.6,3.6-4.7,3.6h-4.2V173.5z M62.3,194.1h-5v-7.2
			h5.1c4.5,0,6.4,1,6.4,3.6C68.9,193.3,67.4,194.1,62.3,194.1z"></path>
		<polygon class="tacobell-logo-st1" points="89.2,187.3 103.8,187.3 103.8,180.3 89.2,180.3 89.2,174 106.7,174 106.7,166.8 80.8,166.8 
			80.8,201.3 107.1,201.3 107.1,194 89.2,194 		"></polygon>
		<polygon class="tacobell-logo-st1" points="119.6,166.8 111.2,166.8 111.2,201.3 134.8,201.3 134.8,194 119.6,194 		"></polygon>
		<polygon class="tacobell-logo-st1" points="147.3,166.8 138.9,166.8 138.9,201.3 162.5,201.3 162.5,194 147.3,194 		"></polygon>
	</g>
	<g>
		<path class="tacobell-logo-st1" d="M166.2,194.5v3.2h-0.5v-3.2h-1V194h2.6v0.5H166.2z M170.6,197.7v-2.7l-0.9,1.7h-0.5l-0.9-1.7v2.7h-0.5V194
			h0.5l1.1,2.2l1.1-2.2h0.5v3.7H170.6z"></path>
	</g>
</g>
</svg>